<?xml version="1.0" encoding="UTF-8" standalone="no"?>
<!DOCTYPE svg PUBLIC "-//W3C//DTD SVG 1.1//EN" "http://www.w3.org/Graphics/SVG/1.1/DTD/svg11.dtd">
<svg width="100%" height="100%" viewBox="0 0 1037 1038" version="1.1" xmlns="http://www.w3.org/2000/svg" xmlns:xlink="http://www.w3.org/1999/xlink" xml:space="preserve" xmlns:serif="http://www.serif.com/" style="fill-rule:evenodd;clip-rule:evenodd;stroke-linejoin:round;stroke-miterlimit:2;">
    <g transform="matrix(1,0,0,1,-287.116,-114.428)">
        <g id="dark-simple" transform="matrix(0.956643,0.256332,-0.255975,0.955313,-247.86,-340.354)">
            <g id="dark">
                <g id="dark-simple1" serif:id="dark-simple">
                    <g transform="matrix(-1,1.22465e-16,-1.22465e-16,-1,2563.89,1352.72)">
                        <path d="M794.044,625.445C785.438,624.993 777.433,620.892 772.03,614.169C766.628,607.446 764.341,598.737 765.742,590.223C802.13,371.144 974.793,197.857 1193.56,160.575C1202.07,159.138 1210.78,161.404 1217.51,166.804C1224.24,172.204 1228.35,180.224 1228.81,188.849C1232.24,253.174 1239.69,394.392 1242.71,451.717C1243.44,465.54 1234.74,478.103 1221.55,482.254C1157.29,502.24 1106.67,553.286 1087.27,617.794C1083.21,631.12 1070.61,639.964 1056.71,639.234C999.241,636.226 858.191,628.815 794.044,625.445Z" style="fill:white;"/>
                    </g>
                    <g transform="matrix(-1,1.22465e-16,-1.22465e-16,-1,2563.89,1352.72)">
                        <path d="M1331.08,188.194C1331.53,179.6 1335.61,171.603 1342.29,166.194C1348.98,160.786 1357.64,158.474 1366.12,159.836C1586.84,195.631 1761.46,369.67 1798.09,590.096C1799.49,598.599 1797.21,607.297 1791.81,614.012C1786.42,620.728 1778.43,624.825 1769.83,625.278C1705.68,628.701 1564.63,636.142 1507.16,639.173C1493.27,639.906 1480.66,631.065 1476.6,617.738C1456.85,552.128 1404.8,500.455 1338.97,481.224C1325.53,477.25 1316.57,464.563 1317.31,450.552C1320.33,392.901 1327.72,252.175 1331.08,188.194Z" style="fill:rgb(233,160,21);"/>
                    </g>
                    <g transform="matrix(1,-8.32667e-17,8.32667e-17,1,-0.608786,-2.27202)">
                        <path d="M794.044,625.445C785.438,624.993 777.433,620.892 772.03,614.169C766.628,607.446 764.341,598.737 765.742,590.223C802.13,371.144 974.793,197.857 1193.56,160.575C1202.07,159.138 1210.78,161.404 1217.51,166.804C1224.24,172.204 1228.35,180.224 1228.81,188.849C1232.24,253.174 1239.69,394.392 1242.71,451.717C1243.44,465.54 1234.74,478.103 1221.55,482.254C1157.29,502.24 1106.67,553.286 1087.27,617.794C1083.21,631.12 1070.61,639.964 1056.71,639.234C999.241,636.226 858.191,628.815 794.044,625.445Z" style="fill:white;"/>
                    </g>
                    <g transform="matrix(-1,1.22465e-16,-1.22465e-16,-1,2563.89,1352.72)">
                        <path d="M1229.23,1163.94C1228.78,1172.57 1224.67,1180.6 1217.93,1186.01C1211.2,1191.41 1202.48,1193.69 1193.96,1192.26C975.04,1155.09 802.204,981.768 765.797,762.593C764.397,754.09 766.679,745.392 772.073,738.677C777.467,731.962 785.461,727.864 794.055,727.411C858.199,723.989 999.246,716.548 1056.72,713.517C1070.62,712.784 1083.23,721.629 1087.29,734.96C1106.72,799.551 1157.45,850.638 1221.83,870.57C1235.03,874.704 1243.76,887.27 1243.03,901.101C1240.03,958.451 1232.61,1099.63 1229.23,1163.94Z" style="fill:white;"/>
                    </g>
                </g>
            </g>
        </g>
    </g>
</svg>
